<mxfile host="app.diagrams.net" modified="2023-09-22T04:37:48.040Z" agent="Mozilla/5.0 (Windows NT 10.0; Win64; x64) AppleWebKit/537.36 (KHTML, like Gecko) Chrome/117.0.0.0 Safari/537.36" etag="L7pUyzLG6wU9okeojaBU" version="21.8.0" type="device">
  <diagram name="Page-1" id="quhOnXiTwRos103pJpzZ">
    <mxGraphModel dx="2036" dy="949" grid="1" gridSize="10" guides="1" tooltips="1" connect="1" arrows="1" fold="1" page="1" pageScale="1" pageWidth="850" pageHeight="1100" math="0" shadow="0">
      <root>
        <mxCell id="0" />
        <mxCell id="1" parent="0" />
        <mxCell id="1EIO5Hsyuac0GlVIlw2z-23" value="" style="rounded=0;whiteSpace=wrap;html=1;" vertex="1" parent="1">
          <mxGeometry x="123" y="20" width="620" height="1050" as="geometry" />
        </mxCell>
        <mxCell id="1EIO5Hsyuac0GlVIlw2z-29" style="edgeStyle=none;rounded=0;orthogonalLoop=1;jettySize=auto;html=1;exitX=0.5;exitY=0.5;exitDx=0;exitDy=0;exitPerimeter=0;entryX=0;entryY=0.5;entryDx=0;entryDy=0;" edge="1" parent="1" source="1EIO5Hsyuac0GlVIlw2z-1" target="1EIO5Hsyuac0GlVIlw2z-14">
          <mxGeometry relative="1" as="geometry" />
        </mxCell>
        <mxCell id="1EIO5Hsyuac0GlVIlw2z-30" style="edgeStyle=none;rounded=0;orthogonalLoop=1;jettySize=auto;html=1;exitX=0.5;exitY=0.5;exitDx=0;exitDy=0;exitPerimeter=0;entryX=0;entryY=0.5;entryDx=0;entryDy=0;" edge="1" parent="1" source="1EIO5Hsyuac0GlVIlw2z-1" target="1EIO5Hsyuac0GlVIlw2z-6">
          <mxGeometry relative="1" as="geometry" />
        </mxCell>
        <mxCell id="1EIO5Hsyuac0GlVIlw2z-44" style="edgeStyle=none;rounded=0;orthogonalLoop=1;jettySize=auto;html=1;exitX=0.5;exitY=0.5;exitDx=0;exitDy=0;exitPerimeter=0;entryX=0;entryY=0.5;entryDx=0;entryDy=0;" edge="1" parent="1" source="1EIO5Hsyuac0GlVIlw2z-1" target="1EIO5Hsyuac0GlVIlw2z-22">
          <mxGeometry relative="1" as="geometry" />
        </mxCell>
        <mxCell id="1EIO5Hsyuac0GlVIlw2z-1" value="Student" style="shape=umlActor;verticalLabelPosition=bottom;verticalAlign=top;html=1;" vertex="1" parent="1">
          <mxGeometry x="20" y="310" width="30" height="60" as="geometry" />
        </mxCell>
        <mxCell id="1EIO5Hsyuac0GlVIlw2z-38" style="edgeStyle=none;rounded=0;orthogonalLoop=1;jettySize=auto;html=1;exitX=0.5;exitY=0.5;exitDx=0;exitDy=0;exitPerimeter=0;entryX=1;entryY=0.5;entryDx=0;entryDy=0;" edge="1" parent="1" source="1EIO5Hsyuac0GlVIlw2z-3" target="1EIO5Hsyuac0GlVIlw2z-22">
          <mxGeometry relative="1" as="geometry" />
        </mxCell>
        <mxCell id="1EIO5Hsyuac0GlVIlw2z-39" style="edgeStyle=none;rounded=0;orthogonalLoop=1;jettySize=auto;html=1;exitX=0.5;exitY=0.5;exitDx=0;exitDy=0;exitPerimeter=0;entryX=1;entryY=0.5;entryDx=0;entryDy=0;" edge="1" parent="1" source="1EIO5Hsyuac0GlVIlw2z-3" target="1EIO5Hsyuac0GlVIlw2z-9">
          <mxGeometry relative="1" as="geometry" />
        </mxCell>
        <mxCell id="1EIO5Hsyuac0GlVIlw2z-40" style="edgeStyle=none;rounded=0;orthogonalLoop=1;jettySize=auto;html=1;exitX=0.5;exitY=0.5;exitDx=0;exitDy=0;exitPerimeter=0;entryX=1;entryY=0.5;entryDx=0;entryDy=0;" edge="1" parent="1" source="1EIO5Hsyuac0GlVIlw2z-3" target="1EIO5Hsyuac0GlVIlw2z-12">
          <mxGeometry relative="1" as="geometry" />
        </mxCell>
        <mxCell id="1EIO5Hsyuac0GlVIlw2z-45" style="edgeStyle=none;rounded=0;orthogonalLoop=1;jettySize=auto;html=1;exitX=0.5;exitY=0.5;exitDx=0;exitDy=0;exitPerimeter=0;entryX=1;entryY=0.5;entryDx=0;entryDy=0;" edge="1" parent="1" source="1EIO5Hsyuac0GlVIlw2z-3" target="1EIO5Hsyuac0GlVIlw2z-24">
          <mxGeometry relative="1" as="geometry" />
        </mxCell>
        <mxCell id="1EIO5Hsyuac0GlVIlw2z-3" value="Instructor" style="shape=umlActor;verticalLabelPosition=bottom;verticalAlign=top;html=1;" vertex="1" parent="1">
          <mxGeometry x="800" y="450" width="30" height="60" as="geometry" />
        </mxCell>
        <mxCell id="1EIO5Hsyuac0GlVIlw2z-36" style="edgeStyle=none;rounded=0;orthogonalLoop=1;jettySize=auto;html=1;exitX=0.5;exitY=0.5;exitDx=0;exitDy=0;exitPerimeter=0;entryX=0;entryY=0.5;entryDx=0;entryDy=0;" edge="1" parent="1" source="1EIO5Hsyuac0GlVIlw2z-4" target="1EIO5Hsyuac0GlVIlw2z-15">
          <mxGeometry relative="1" as="geometry" />
        </mxCell>
        <mxCell id="1EIO5Hsyuac0GlVIlw2z-37" style="edgeStyle=none;rounded=0;orthogonalLoop=1;jettySize=auto;html=1;exitX=0.5;exitY=0.5;exitDx=0;exitDy=0;exitPerimeter=0;entryX=0;entryY=0.5;entryDx=0;entryDy=0;" edge="1" parent="1" source="1EIO5Hsyuac0GlVIlw2z-4" target="1EIO5Hsyuac0GlVIlw2z-16">
          <mxGeometry relative="1" as="geometry" />
        </mxCell>
        <mxCell id="1EIO5Hsyuac0GlVIlw2z-4" value="Administrator" style="shape=umlActor;verticalLabelPosition=bottom;verticalAlign=top;html=1;" vertex="1" parent="1">
          <mxGeometry x="30" y="860" width="30" height="60" as="geometry" />
        </mxCell>
        <mxCell id="1EIO5Hsyuac0GlVIlw2z-42" style="edgeStyle=none;rounded=0;orthogonalLoop=1;jettySize=auto;html=1;exitX=0.5;exitY=1;exitDx=0;exitDy=0;" edge="1" parent="1" source="1EIO5Hsyuac0GlVIlw2z-5" target="1EIO5Hsyuac0GlVIlw2z-6">
          <mxGeometry relative="1" as="geometry" />
        </mxCell>
        <mxCell id="1EIO5Hsyuac0GlVIlw2z-5" value="Browse Courses" style="ellipse;whiteSpace=wrap;html=1;" vertex="1" parent="1">
          <mxGeometry x="350" y="170" width="110" height="55" as="geometry" />
        </mxCell>
        <mxCell id="1EIO5Hsyuac0GlVIlw2z-41" style="edgeStyle=none;rounded=0;orthogonalLoop=1;jettySize=auto;html=1;exitX=1;exitY=0.5;exitDx=0;exitDy=0;entryX=0;entryY=0.5;entryDx=0;entryDy=0;" edge="1" parent="1" source="1EIO5Hsyuac0GlVIlw2z-6" target="1EIO5Hsyuac0GlVIlw2z-7">
          <mxGeometry relative="1" as="geometry" />
        </mxCell>
        <mxCell id="1EIO5Hsyuac0GlVIlw2z-6" value="Enroll in Course" style="ellipse;whiteSpace=wrap;html=1;" vertex="1" parent="1">
          <mxGeometry x="270" y="250" width="110" height="60" as="geometry" />
        </mxCell>
        <mxCell id="1EIO5Hsyuac0GlVIlw2z-43" style="edgeStyle=none;rounded=0;orthogonalLoop=1;jettySize=auto;html=1;exitX=0.5;exitY=1;exitDx=0;exitDy=0;entryX=0.5;entryY=0;entryDx=0;entryDy=0;" edge="1" parent="1" source="1EIO5Hsyuac0GlVIlw2z-7" target="1EIO5Hsyuac0GlVIlw2z-8">
          <mxGeometry relative="1" as="geometry" />
        </mxCell>
        <mxCell id="1EIO5Hsyuac0GlVIlw2z-7" value="View Course Material" style="ellipse;whiteSpace=wrap;html=1;" vertex="1" parent="1">
          <mxGeometry x="440" y="250" width="110" height="60" as="geometry" />
        </mxCell>
        <mxCell id="1EIO5Hsyuac0GlVIlw2z-8" value="Take Quiz/Assignments" style="ellipse;whiteSpace=wrap;html=1;" vertex="1" parent="1">
          <mxGeometry x="350" y="360" width="110" height="60" as="geometry" />
        </mxCell>
        <mxCell id="1EIO5Hsyuac0GlVIlw2z-47" style="edgeStyle=none;rounded=0;orthogonalLoop=1;jettySize=auto;html=1;exitX=0.5;exitY=1;exitDx=0;exitDy=0;entryX=0.5;entryY=0;entryDx=0;entryDy=0;" edge="1" parent="1" source="1EIO5Hsyuac0GlVIlw2z-9" target="1EIO5Hsyuac0GlVIlw2z-12">
          <mxGeometry relative="1" as="geometry" />
        </mxCell>
        <mxCell id="1EIO5Hsyuac0GlVIlw2z-9" value="Create Course" style="ellipse;whiteSpace=wrap;html=1;" vertex="1" parent="1">
          <mxGeometry x="340" y="550" width="110" height="60" as="geometry" />
        </mxCell>
        <mxCell id="1EIO5Hsyuac0GlVIlw2z-48" style="edgeStyle=none;rounded=0;orthogonalLoop=1;jettySize=auto;html=1;exitX=0.5;exitY=1;exitDx=0;exitDy=0;entryX=0.5;entryY=0;entryDx=0;entryDy=0;" edge="1" parent="1" source="1EIO5Hsyuac0GlVIlw2z-12" target="1EIO5Hsyuac0GlVIlw2z-24">
          <mxGeometry relative="1" as="geometry" />
        </mxCell>
        <mxCell id="1EIO5Hsyuac0GlVIlw2z-12" value="Add/Update&lt;br&gt;Course Material" style="ellipse;whiteSpace=wrap;html=1;" vertex="1" parent="1">
          <mxGeometry x="340" y="650" width="110" height="60" as="geometry" />
        </mxCell>
        <mxCell id="1EIO5Hsyuac0GlVIlw2z-13" value="Grade &lt;br&gt;Assignments" style="ellipse;whiteSpace=wrap;html=1;" vertex="1" parent="1">
          <mxGeometry x="240" y="760" width="110" height="60" as="geometry" />
        </mxCell>
        <mxCell id="1EIO5Hsyuac0GlVIlw2z-34" style="edgeStyle=none;rounded=0;orthogonalLoop=1;jettySize=auto;html=1;exitX=0.5;exitY=1;exitDx=0;exitDy=0;entryX=0.5;entryY=0;entryDx=0;entryDy=0;" edge="1" parent="1" source="1EIO5Hsyuac0GlVIlw2z-14" target="1EIO5Hsyuac0GlVIlw2z-5">
          <mxGeometry relative="1" as="geometry" />
        </mxCell>
        <mxCell id="1EIO5Hsyuac0GlVIlw2z-14" value="Login/Signup" style="ellipse;whiteSpace=wrap;html=1;" vertex="1" parent="1">
          <mxGeometry x="355" y="85" width="100" height="52.5" as="geometry" />
        </mxCell>
        <mxCell id="1EIO5Hsyuac0GlVIlw2z-15" value="Manage Courses" style="ellipse;whiteSpace=wrap;html=1;" vertex="1" parent="1">
          <mxGeometry x="350" y="860" width="110" height="60" as="geometry" />
        </mxCell>
        <mxCell id="1EIO5Hsyuac0GlVIlw2z-16" value="Manage Users" style="ellipse;whiteSpace=wrap;html=1;" vertex="1" parent="1">
          <mxGeometry x="350" y="980" width="110" height="60" as="geometry" />
        </mxCell>
        <mxCell id="1EIO5Hsyuac0GlVIlw2z-22" value="Discuss In Forums" style="ellipse;whiteSpace=wrap;html=1;" vertex="1" parent="1">
          <mxGeometry x="350" y="450" width="100" height="60" as="geometry" />
        </mxCell>
        <mxCell id="1EIO5Hsyuac0GlVIlw2z-46" style="edgeStyle=none;rounded=0;orthogonalLoop=1;jettySize=auto;html=1;exitX=0;exitY=0.5;exitDx=0;exitDy=0;entryX=1;entryY=0.5;entryDx=0;entryDy=0;" edge="1" parent="1" source="1EIO5Hsyuac0GlVIlw2z-24" target="1EIO5Hsyuac0GlVIlw2z-13">
          <mxGeometry relative="1" as="geometry" />
        </mxCell>
        <mxCell id="1EIO5Hsyuac0GlVIlw2z-24" value="Give Qz/Assignments" style="ellipse;whiteSpace=wrap;html=1;" vertex="1" parent="1">
          <mxGeometry x="440" y="760" width="110" height="60" as="geometry" />
        </mxCell>
        <mxCell id="1EIO5Hsyuac0GlVIlw2z-50" value="&lt;font style=&quot;font-size: 24px;&quot;&gt;&lt;b&gt;Learning Management System&lt;/b&gt;&lt;/font&gt;" style="text;strokeColor=none;align=center;fillColor=none;html=1;verticalAlign=middle;whiteSpace=wrap;rounded=0;" vertex="1" parent="1">
          <mxGeometry x="208.75" y="27" width="392.5" height="30" as="geometry" />
        </mxCell>
      </root>
    </mxGraphModel>
  </diagram>
</mxfile>
